<svg xmlns="http://www.w3.org/2000/svg" viewBox="0 0 653.39 246.4"><defs><style>.cls-1,.cls-2{fill:#9fc9eb;}.cls-1,.cls-3{fill-rule:evenodd;}.cls-3{fill:#016699;}.cls-4{font-size:123px;font-family:Raleway-ExtraBold, Raleway;font-weight:800;}.cls-5{letter-spacing:0em;}.cls-6{letter-spacing:-0.07em;}.cls-7{font-family:Raleway-ExtraLight, Raleway;font-weight:200;}.cls-8{letter-spacing:-0.01em;}</style></defs><title>Asset 39</title><g id="Layer_2" data-name="Layer 2"><g id="infinti"><path class="cls-1" d="M113.39,1.12A113.39,113.39,0,1,1,33.21,34.33,113,113,0,0,1,113.39,1.12m0,17.19a96.21,96.21,0,1,0,68,28.18A95.84,95.84,0,0,0,113.39,18.31Z"/><path class="cls-2" d="M156.74,92.53l3.08-.91h0l14.11-4.15v.31h0v17.57l-2.17.64h0l-15,4.41Z"/><path class="cls-3" d="M104.79,108.42v-.57l0-.07h0V79.38a34.64,34.64,0,0,1,69-4.23l-16.95,5c0-.26,0-.51,0-.76a17.45,17.45,0,1,0-34.89,0h0v23.34l15.78-4.64,7-2.06v.31h0V113.9l-2.18.64h0l-15,4.42h0L122,120.59v.57l0,.08h0v28.39A34.61,34.61,0,1,1,77.6,116.42h0Zm25.84,10.2,0,.07h0Zm-25.84,31h0V126.3l-22.36,6.57h0a17.46,17.46,0,1,0,22.36,16.76Z"/></g><g id="text-side"><text class="cls-4" transform="translate(232.44 105.16)"><tspan class="cls-5">S</tspan><tspan class="cls-6" x="75.03" y="0">TA</tspan><tspan x="216.6" y="0">TIC</tspan><tspan class="cls-7"><tspan x="0" y="106">F</tspan><tspan class="cls-8" x="73.55" y="106">R</tspan><tspan x="151.54" y="106">AME</tspan></tspan></text></g></g></svg>