<svg xmlns="http://www.w3.org/2000/svg" viewBox="0 0 328.82 328.82"><defs><style>.cls-1,.cls-6,.cls-7{fill:none;}.cls-2,.cls-3,.cls-5{fill:#9fc9eb;}.cls-2,.cls-4{fill-rule:evenodd;}.cls-4{fill:#016699;}.cls-5{font-size:24px;font-family:Raleway-ExtraBold, Raleway;font-weight:800;}.cls-6,.cls-7{stroke:#9fc9eb;stroke-miterlimit:10;}.cls-6{stroke-width:3.95px;stroke-dasharray:230.4 230.4;}.cls-7{stroke-width:0.85px;stroke-dasharray:231.6 231.6;}</style></defs><title>Asset 41</title><g id="Layer_2" data-name="Layer 2"><g id="background"><circle class="cls-1" cx="164.41" cy="164.41" r="164.41"/></g><g id="infinti"><path class="cls-2" d="M164.41,50.94A113.39,113.39,0,1,1,84.23,84.15a113,113,0,0,1,80.18-33.21m0,17.2a96.18,96.18,0,1,0,68,28.17A95.83,95.83,0,0,0,164.41,68.14Z"/><path class="cls-3" d="M207.76,142.35l3.09-.91h0L225,137.29c0,.11,0,.21,0,.31h0v17.57l-2.17.64h0l-15,4.41Z"/><path class="cls-4" d="M155.81,158.24v-.56l0-.08h0V129.2a34.64,34.64,0,0,1,69-4.23l-17,5c0-.25,0-.51,0-.76a17.45,17.45,0,1,0-34.89,0h0v23.34l15.77-4.64,7-2.05v.31h0v17.56l-2.17.64h0l-15,4.42h0L173,170.41V171l0,.08h0v28.39a34.62,34.62,0,1,1-44.39-33.22h0Zm25.84,10.2,0,.08h0Zm-25.84,31h0V176.12l-22.35,6.57h0a17.46,17.46,0,1,0,22.35,16.77Z"/></g><g id="text-top"><text class="cls-5" transform="matrix(0.98, 0.19, -0.19, 0.98, 182.3, 35.02)">S</text><text class="cls-5" transform="translate(213.95 43.53) rotate(25.6)">T</text><text class="cls-5" transform="matrix(0.77, 0.64, -0.64, 0.77, 241.37, 58.83)">A</text><text class="cls-5" transform="translate(265.06 81.18) rotate(53.64)">T</text><text class="cls-5" transform="matrix(0.4, 0.92, -0.92, 0.4, 282.64, 109.24)">I</text><text class="cls-5" transform="translate(291.31 133.18) rotate(79.86)">C</text><circle class="cls-1" cx="164.41" cy="164.33" r="147.4"/></g><g id="text-bottom"><path class="cls-3" d="M18.91,188.64l16.71-3.34,2.17,10.88-1.08.21-1.94-9.67L28.14,188l1.64,8.22-1,.2-1.64-8.21-8,1.59Z"/><path class="cls-3" d="M30.46,226.27l15.18-7.74,3.22,6.31a4.54,4.54,0,0,1,.5,2,5.16,5.16,0,0,1-.37,2,5.88,5.88,0,0,1-1.05,1.7,5.27,5.27,0,0,1-1.53,1.19,5.66,5.66,0,0,1-3.52.56,4.78,4.78,0,0,1-1.6-.61A4.52,4.52,0,0,1,40,230.42l-4,6.8L35.39,236l3.86-6.59-2.5-4.92L31,227.36Zm7.29-2.35,2.71,5.33a3.14,3.14,0,0,0,1,1.16,3.82,3.82,0,0,0,1.37.6,4.12,4.12,0,0,0,1.53,0,4.9,4.9,0,0,0,1.49-.48,4,4,0,0,0,1.27-1,4.36,4.36,0,0,0,.81-1.33,4,4,0,0,0,.28-1.49,3.19,3.19,0,0,0-.36-1.47l-2.63-5.18Z"/><path class="cls-3" d="M68.45,252.65l.72.78-7.6,16.86-.88-1,2.5-5.56-5.53-6-5.73,2.07-.9-1Zm-4.75,10.2,4-8.8-9.12,3.29Z"/><path class="cls-3" d="M96.8,295.62l7.39-12.75-11.58,6.58-.67-.39,0-13.31L84.51,288.5l-1.06-.61L92,273.14l1.05.61,0,14.11,12.26-7,1.06.62-8.54,14.74Z"/><path class="cls-3" d="M137.14,308.31l-.25,1.07-11-2.57,3.86-16.6,10.85,2.53-.25,1.07-9.65-2.25-1.52,6.52,8.43,2-.24,1-8.43-2-1.61,6.9Z"/></g><g id="binders-arc-dashSB"><path class="cls-6" d="M310.28,164.41a145.93,145.93,0,1,1-291.85,0"/></g><g id="binders-arc-dashSL"><path class="cls-7" d="M17,164.41a147.4,147.4,0,0,1,294.8,0"/></g></g></svg>