<svg xmlns="http://www.w3.org/2000/svg" viewBox="0 0 568.41 226.77">
  <defs>
    <style>
      .cls-1, .cls-2 {
        fill: #fff;
      }

      .cls-1 {
        fill-rule: evenodd;
      }
    </style>
  </defs>
  <title>Asset 42</title>
  <g id="Layer_2" data-name="Layer 2">
    <g id="circle">
      <path class="cls-1" d="M113.39,0A113.39,113.39,0,1,1,33.21,33.21,113,113,0,0,1,113.39,0m0,17.19a96.21,96.21,0,1,0,68,28.18A95.84,95.84,0,0,0,113.39,17.19Z"/>
    </g>
    <g id="infinti">
      <path class="cls-2" d="M156.74,91.41l3.08-.91h0l14.11-4.15v.31h0v17.57l-2.17.64h0l-15,4.41Z"/>
      <path class="cls-1" d="M104.79,107.3v-.57l0-.07h0V78.26a34.64,34.64,0,0,1,69-4.23l-16.95,5c0-.25,0-.5,0-.75a17.45,17.45,0,1,0-34.89,0h0v23.33L137.76,97l7-2.06v.31h0v17.57l-2.18.64h0l-15,4.41h0L122,119.47V120l0,.08h0v28.39A34.61,34.61,0,1,1,77.6,115.3h0Zm25.84,10.2,0,.07h0Zm-25.84,31h0V125.18l-22.36,6.57h0a17.46,17.46,0,1,0,22.36,16.76Z"/>
    </g>
    <g id="side-text">
      <g>
        <path class="cls-2" d="M287.94,62.85a9.91,9.91,0,0,0-2.06-1.47,38.6,38.6,0,0,0-4.41-2.25,43.33,43.33,0,0,0-5.78-2.06,23,23,0,0,0-6.27-.88q-8.62,0-8.63,5.78a4.58,4.58,0,0,0,.93,2.94A8.15,8.15,0,0,0,264.47,67,25.27,25.27,0,0,0,269,68.73c1.82.53,4,1.12,6.37,1.77a82,82,0,0,1,9,3,24,24,0,0,1,6.81,4,16.35,16.35,0,0,1,4.31,5.84,20.09,20.09,0,0,1,1.52,8.23,20.6,20.6,0,0,1-2.2,9.94,18.63,18.63,0,0,1-5.83,6.57,24.62,24.62,0,0,1-8.33,3.63,41.59,41.59,0,0,1-9.7,1.12,54.26,54.26,0,0,1-7.84-.58,57.82,57.82,0,0,1-7.84-1.72,62.56,62.56,0,0,1-7.4-2.69,42,42,0,0,1-6.62-3.63l7.06-14a14.29,14.29,0,0,0,2.55,1.86,37.41,37.41,0,0,0,5.34,2.74,53.88,53.88,0,0,0,7.1,2.45,29.74,29.74,0,0,0,7.94,1.08q8.52,0,8.53-5.19a4.39,4.39,0,0,0-1.28-3.24A11.79,11.79,0,0,0,275,87.6a37.81,37.81,0,0,0-5.34-1.91c-2.06-.59-4.29-1.24-6.71-2a57.18,57.18,0,0,1-8.33-3.19,21.7,21.7,0,0,1-5.83-4,14.3,14.3,0,0,1-3.43-5.19,19.15,19.15,0,0,1-1.13-6.86,21.86,21.86,0,0,1,2.06-9.7,20.87,20.87,0,0,1,5.59-7.11,24.34,24.34,0,0,1,8.18-4.36,32.47,32.47,0,0,1,9.85-1.47,37.18,37.18,0,0,1,7.15.69,53.9,53.9,0,0,1,6.76,1.76,48.9,48.9,0,0,1,6,2.45c1.86.92,3.58,1.83,5.15,2.75Z"/>
        <path class="cls-2" d="M359,56.58H337.82v55.47H321.75V56.58H300.48V42.47H359Z"/>
        <path class="cls-2" d="M378.88,42.47h14.51l25.38,69.58H402.3l-5.39-15.58H375.26L370,112.05H353.5Zm15.39,42.92L386.13,60.8,377.8,85.39Z"/>
        <path class="cls-2" d="M471.79,56.58H450.62v55.47H434.55V56.58H413.28V42.47h58.51Z"/>
        <path class="cls-2" d="M479.63,112.05V42.47H495.7v69.58Z"/>
        <path class="cls-2" d="M505,76.67a35.05,35.05,0,0,1,2.35-12.49,34.08,34.08,0,0,1,6.86-11.13,34.78,34.78,0,0,1,11-7.93,34.16,34.16,0,0,1,14.7-3,33.07,33.07,0,0,1,17,4.21,27.26,27.26,0,0,1,10.73,11l-12.35,8.62a14.28,14.28,0,0,0-3-4.56,16.68,16.68,0,0,0-4-2.94,16.16,16.16,0,0,0-4.41-1.56,22.43,22.43,0,0,0-4.41-.44,16.56,16.56,0,0,0-8,1.86,17.63,17.63,0,0,0-5.69,4.8,20,20,0,0,0-3.33,6.66,27,27,0,0,0-1.08,7.55,25,25,0,0,0,1.28,7.94A21.14,21.14,0,0,0,526.32,92a17.73,17.73,0,0,0,5.78,4.65,16.5,16.5,0,0,0,7.6,1.72,19.6,19.6,0,0,0,4.46-.54,17.87,17.87,0,0,0,4.41-1.67,15.86,15.86,0,0,0,3.87-2.94,13.76,13.76,0,0,0,2.84-4.45l13.13,7.74a20.36,20.36,0,0,1-4.65,6.86,28.82,28.82,0,0,1-7.11,5.09,38.93,38.93,0,0,1-17.34,4.22,31.12,31.12,0,0,1-13.87-3.09,35.14,35.14,0,0,1-10.88-8.18,37.23,37.23,0,0,1-7-11.57A36,36,0,0,1,505,76.67Z"/>
        <path class="cls-2" d="M248.94,183.05V113.47H294v3.14H252.37V146h35.37v3H252.37v34Z"/>
        <path class="cls-2" d="M307.54,183.05V113.47h28.62a17.42,17.42,0,0,1,8,1.86,21,21,0,0,1,6.32,4.85,22.28,22.28,0,0,1,4.12,6.81,21.43,21.43,0,0,1,1.47,7.75,23.61,23.61,0,0,1-1.23,7.64,21,21,0,0,1-3.48,6.47,19.55,19.55,0,0,1-5.38,4.7,16.86,16.86,0,0,1-7,2.26l17.44,27.24h-3.92L335.27,156.2H311v26.85Zm3.43-30h25.77a14,14,0,0,0,6.62-1.57,15.92,15.92,0,0,0,5.05-4.11,18.93,18.93,0,0,0,3.18-5.88,21,21,0,0,0,1.13-6.76,17.93,17.93,0,0,0-1.33-6.82,19.49,19.49,0,0,0-3.57-5.78,18.05,18.05,0,0,0-5.3-4,14.27,14.27,0,0,0-6.46-1.51H311Z"/>
        <path class="cls-2" d="M391.82,113.47h2.94l29.89,69.58H421l-10.29-24H375.84l-10.29,24h-3.72Zm17.83,42.63-16.36-38.32L376.82,156.1Z"/>
        <path class="cls-2" d="M500,183.05V120.13l-29.21,49.4h-2.35l-29.2-49.4v62.92h-3.43V113.47H439l30.67,51.84,30.67-51.84h3.14v69.58Z"/>
        <path class="cls-2" d="M568.22,179.91v3.14h-46V113.47h45.08v3.14H525.68v29.3h36.46V149H525.68v30.87Z"/>
      </g>
    </g>
  </g>
</svg>
