<svg xmlns="http://www.w3.org/2000/svg" viewBox="0 0 681.73 226.77"><defs><style>.cls-1,.cls-2{fill:#9fc9eb;}.cls-1,.cls-3{fill-rule:evenodd;}.cls-3,.cls-4{fill:#016699;}.cls-4{font-size:58px;font-family:Raleway-ExtraBold, Raleway;font-weight:800;}.cls-5{letter-spacing:0.85em;}.cls-6{letter-spacing:0.79em;}.cls-7{letter-spacing:0.86em;}.cls-8{font-family:Raleway-ExtraLight, Raleway;font-weight:200;}.cls-9{letter-spacing:1.06em;}.cls-10{letter-spacing:1.05em;}</style></defs><title>Asset 39</title><g id="Layer_2" data-name="Layer 2"><g id="infinti"><path class="cls-1" d="M113.39,0A113.39,113.39,0,1,1,33.21,33.21,113,113,0,0,1,113.39,0m0,17.19a96.21,96.21,0,1,0,68,28.18A95.84,95.84,0,0,0,113.39,17.19Z"/><path class="cls-2" d="M156.74,91.41l3.08-.91h0l14.11-4.15v.31h0v17.57l-2.17.64h0l-15,4.41Z"/><path class="cls-3" d="M104.79,107.3v-.57l0-.07h0V78.26a34.64,34.64,0,0,1,69-4.23l-16.95,5c0-.25,0-.5,0-.75a17.45,17.45,0,1,0-34.89,0h0v23.33L137.76,97l7-2.06v.31h0v17.57l-2.18.64h0l-15,4.41h0L122,119.47V120l0,.08h0v28.39A34.61,34.61,0,1,1,77.6,115.3h0Zm25.84,10.2,0,.07h0Zm-25.84,31h0V125.18l-22.36,6.57h0a17.46,17.46,0,1,0,22.36,16.76Z"/></g><g id="text-side"><text class="cls-4" transform="translate(238.11 83.52)"><tspan class="cls-5">S</tspan><tspan class="cls-6" x="85.01" y="0">TA</tspan><tspan class="cls-7" x="251.04" y="0">TI</tspan><tspan x="403.72" y="0">C</tspan><tspan class="cls-8"><tspan class="cls-9" x="0" y="100">F</tspan><tspan class="cls-10" x="96.23" y="100">R</tspan><tspan class="cls-9" x="194.55" y="100">AM</tspan><tspan x="407.95" y="100">E</tspan></tspan></text></g></g></svg>