<svg xmlns="http://www.w3.org/2000/svg" viewBox="0 0 328.82 328.82"><defs><style>.cls-1,.cls-5,.cls-6{fill:none;}.cls-2,.cls-3{fill:#9fc9eb;}.cls-2,.cls-4{fill-rule:evenodd;}.cls-4{fill:#016699;}.cls-5,.cls-6{stroke:#9fc9eb;stroke-miterlimit:10;}.cls-5{stroke-width:3.95px;stroke-dasharray:230.4 230.4;}.cls-6{stroke-width:0.85px;stroke-dasharray:231.6 231.6;}</style></defs><title>Asset 42</title><g id="Layer_2" data-name="Layer 2"><g id="background"><circle class="cls-1" cx="164.41" cy="164.41" r="164.41"/></g><g id="infinti"><path class="cls-2" d="M164.41,50.94A113.39,113.39,0,1,1,84.23,84.15a113,113,0,0,1,80.18-33.21m0,17.2a96.18,96.18,0,1,0,68,28.17A95.83,95.83,0,0,0,164.41,68.14Z"/><path class="cls-3" d="M207.76,142.35l3.09-.91h0L225,137.29c0,.11,0,.21,0,.31h0v17.57l-2.17.64h0l-15,4.41Z"/><path class="cls-4" d="M155.81,158.24v-.56l0-.08h0V129.2a34.64,34.64,0,0,1,69-4.23l-17,5c0-.25,0-.51,0-.76a17.45,17.45,0,1,0-34.89,0h0v23.34l15.77-4.64,7-2.05v.31h0v17.56l-2.17.64h0l-15,4.42h0L173,170.41V171l0,.08h0v28.39a34.62,34.62,0,1,1-44.39-33.22h0Zm25.84,10.2,0,.08h0Zm-25.84,31h0V176.12l-22.35,6.57h0a17.46,17.46,0,1,0,22.35,16.77Z"/></g><g id="text-top"><path class="cls-3" d="M196.25,25.47a2.83,2.83,0,0,0-.43-.45,9.88,9.88,0,0,0-.95-.75,10.62,10.62,0,0,0-1.3-.77,5.61,5.61,0,0,0-1.46-.5c-1.39-.27-2.17.06-2.35,1a1.1,1.1,0,0,0,.09.75,2,2,0,0,0,.56.64,6.66,6.66,0,0,0,1,.62l1.45.73a18.85,18.85,0,0,1,2,1.14,6.07,6.07,0,0,1,1.45,1.28,4.12,4.12,0,0,1,.76,1.61,4.89,4.89,0,0,1,0,2,5.19,5.19,0,0,1-1,2.29,4.59,4.59,0,0,1-1.71,1.3,5.89,5.89,0,0,1-2.17.48,10.79,10.79,0,0,1-2.39-.18,13.11,13.11,0,0,1-1.85-.51,13.9,13.9,0,0,1-1.81-.78,17.24,17.24,0,0,1-1.65-1,10.34,10.34,0,0,1-1.42-1.18l2.36-3a3.14,3.14,0,0,0,.52.57,8.87,8.87,0,0,0,1.16.91,11.7,11.7,0,0,0,1.59.92,6.81,6.81,0,0,0,1.86.63c1.36.27,2.13,0,2.29-.84a1.06,1.06,0,0,0-.16-.84,2.68,2.68,0,0,0-.74-.72,8.3,8.3,0,0,0-1.19-.71l-1.52-.79a14.23,14.23,0,0,1-1.85-1.15,5.44,5.44,0,0,1-1.22-1.23,3.49,3.49,0,0,1-.58-1.41,4.7,4.7,0,0,1,0-1.7,5.36,5.36,0,0,1,1-2.24,5,5,0,0,1,1.68-1.44,5.8,5.8,0,0,1,2.17-.67,8.08,8.08,0,0,1,2.44.11,8.79,8.79,0,0,1,1.68.5,13.87,13.87,0,0,1,1.55.74,13.33,13.33,0,0,1,1.33.88q.6.45,1.11.9Z"/><path class="cls-3" d="M233,37.59l-4.67-2.24L222.46,47.6l-3.55-1.7,5.87-12.25-4.7-2.25,1.49-3.12,12.93,6.19Z"/><path class="cls-3" d="M257.06,49.71,259.8,52l-6.09,17.08-3.1-2.57L252,62.71l-4.09-3.39-3.43,2.12-3.1-2.58Zm-3.8,10.5,2.31-5.91-5.42,3.33Z"/><path class="cls-3" d="M284.67,84.89l-3.07-4.17-10.94,8-2.34-3.17,10.94-8-3.09-4.19,2.79-2,8.49,11.54Z"/><path class="cls-3" d="M283.29,110.73,298.93,104l1.56,3.61-15.63,6.78Z"/><path class="cls-3" d="M300,132.29a8.62,8.62,0,0,1,3.12,0,8.38,8.38,0,0,1,5.36,3.47,8.52,8.52,0,0,1,1.37,3.42,8.12,8.12,0,0,1-.29,4.28,6.69,6.69,0,0,1-2.18,3.06l-2.61-2.61a3.54,3.54,0,0,0,1-.91,3.79,3.79,0,0,0,.53-1.09,3.72,3.72,0,0,0,.19-1.13,5.5,5.5,0,0,0-.08-1.08,4,4,0,0,0-.8-1.86,4.33,4.33,0,0,0-1.4-1.16,4.94,4.94,0,0,0-1.75-.52,6.8,6.8,0,0,0-1.86.07,5.88,5.88,0,0,0-1.86.65,5.21,5.21,0,0,0-1.48,1.18,4.42,4.42,0,0,0-.87,1.59,3.94,3.94,0,0,0-.08,1.91,4.48,4.48,0,0,0,.32,1,4.55,4.55,0,0,0,.59,1,4,4,0,0,0,.88.81,3.43,3.43,0,0,0,1.19.49l-1.3,3.5a5,5,0,0,1-1.85-.83,7.24,7.24,0,0,1-1.54-1.49,9.65,9.65,0,0,1-1.12-1.92,9.36,9.36,0,0,1-.64-2.08,7.54,7.54,0,0,1,.15-3.48,8.5,8.5,0,0,1,1.5-3,9.15,9.15,0,0,1,2.48-2.2A8.82,8.82,0,0,1,300,132.29Z"/><circle class="cls-1" cx="164.41" cy="164.33" r="147.4"/></g><g id="text-bottom"><path class="cls-3" d="M18.91,188.64l16.71-3.34,2.17,10.88-1.08.21-1.94-9.67L28.14,188l1.64,8.22-1,.2-1.64-8.21-8,1.59Z"/><path class="cls-3" d="M30.46,226.27l15.18-7.74,3.22,6.31a4.54,4.54,0,0,1,.5,2,5.16,5.16,0,0,1-.37,2,5.88,5.88,0,0,1-1.05,1.7,5.27,5.27,0,0,1-1.53,1.19,5.66,5.66,0,0,1-3.52.56,4.78,4.78,0,0,1-1.6-.61A4.52,4.52,0,0,1,40,230.42l-4,6.8L35.39,236l3.86-6.59-2.5-4.92L31,227.36Zm7.29-2.35,2.71,5.33a3.14,3.14,0,0,0,1,1.16,3.82,3.82,0,0,0,1.37.6,4.12,4.12,0,0,0,1.53,0,4.9,4.9,0,0,0,1.49-.48,4,4,0,0,0,1.27-1,4.36,4.36,0,0,0,.81-1.33,4,4,0,0,0,.28-1.49,3.19,3.19,0,0,0-.36-1.47l-2.63-5.18Z"/><path class="cls-3" d="M68.45,252.65l.72.78-7.6,16.86-.88-1,2.5-5.56-5.53-6-5.73,2.07-.9-1Zm-4.75,10.2,4-8.8-9.12,3.29Z"/><path class="cls-3" d="M96.8,295.62l7.39-12.75-11.58,6.58-.67-.39,0-13.31L84.51,288.5l-1.06-.61L92,273.14l1.05.61,0,14.11,12.26-7,1.06.62-8.54,14.74Z"/><path class="cls-3" d="M137.14,308.31l-.25,1.07-11-2.57,3.86-16.6,10.85,2.53-.25,1.07-9.65-2.25-1.52,6.52,8.43,2-.24,1-8.43-2-1.61,6.9Z"/></g><g id="binders-arc-dashSB"><path class="cls-5" d="M310.28,164.41a145.93,145.93,0,1,1-291.85,0"/></g><g id="binders-arc-dashSL"><path class="cls-6" d="M17,164.41a147.4,147.4,0,0,1,294.8,0"/></g></g></svg>