<svg xmlns="http://www.w3.org/2000/svg" viewBox="0 0 645.23 226.77"><defs><style>.cls-1,.cls-2{fill:#9fc9eb;}.cls-1,.cls-3{fill-rule:evenodd;}.cls-3{fill:#016699;}</style></defs><title>Asset 41</title><g id="Layer_2" data-name="Layer 2"><g id="infinti"><path class="cls-1" d="M113.39,0A113.39,113.39,0,1,1,33.21,33.21,113,113,0,0,1,113.39,0m0,17.19a96.21,96.21,0,1,0,68,28.18A95.84,95.84,0,0,0,113.39,17.19Z"/><path class="cls-2" d="M156.74,91.41l3.08-.91h0l14.11-4.15v.31h0v17.57l-2.17.64h0l-15,4.41Z"/><path class="cls-3" d="M104.79,107.3v-.57l0-.07h0V78.26a34.64,34.64,0,0,1,69-4.23l-16.95,5c0-.25,0-.5,0-.75a17.45,17.45,0,1,0-34.89,0h0v23.33L137.76,97l7-2.06v.31h0v17.57l-2.18.64h0l-15,4.41h0L122,119.47V120l0,.08h0v28.39A34.61,34.61,0,1,1,77.6,115.3h0Zm25.84,10.2,0,.07h0Zm-25.84,31h0V125.18l-22.36,6.57h0a17.46,17.46,0,1,0,22.36,16.76Z"/></g><g id="text-side"><path d="M293.2,42.3a12.08,12.08,0,0,0-2.58-1.85,50,50,0,0,0-5.54-2.83A54.31,54.31,0,0,0,277.83,35,28.92,28.92,0,0,0,270,33.93q-10.83,0-10.83,7.26a5.74,5.74,0,0,0,1.17,3.69,10.46,10.46,0,0,0,3.44,2.65,32.33,32.33,0,0,0,5.72,2.15c2.3.66,5,1.39,8,2.21a105.53,105.53,0,0,1,11.31,3.75,30.34,30.34,0,0,1,8.55,5A20.59,20.59,0,0,1,302.74,68a25.49,25.49,0,0,1,1.9,10.34,25.81,25.81,0,0,1-2.77,12.48,23.31,23.31,0,0,1-7.31,8.24,30.93,30.93,0,0,1-10.46,4.55A52.25,52.25,0,0,1,271.92,105a68.28,68.28,0,0,1-9.84-.74,71.46,71.46,0,0,1-9.84-2.15A76.54,76.54,0,0,1,243,98.75a51.29,51.29,0,0,1-8.31-4.55l8.86-17.59a16.75,16.75,0,0,0,3.2,2.34,47.88,47.88,0,0,0,6.7,3.45,68.18,68.18,0,0,0,8.92,3.07,37.48,37.48,0,0,0,10,1.35q10.71,0,10.7-6.52a5.47,5.47,0,0,0-1.6-4A14.91,14.91,0,0,0,277,73.36a45.93,45.93,0,0,0-6.71-2.4q-3.87-1.11-8.42-2.46a73.29,73.29,0,0,1-10.46-4,27.73,27.73,0,0,1-7.32-5,18.18,18.18,0,0,1-4.3-6.52,24,24,0,0,1-1.42-8.61,27.48,27.48,0,0,1,2.59-12.18,26.36,26.36,0,0,1,7-8.92,30.6,30.6,0,0,1,10.27-5.47A40.76,40.76,0,0,1,270.57,16a46.48,46.48,0,0,1,9,.86A67.61,67.61,0,0,1,288,19.05a60.51,60.51,0,0,1,7.56,3.08c2.34,1.15,4.49,2.29,6.46,3.44Z"/><path d="M382.38,34.43H355.81V104H335.64V34.43H309V16.71h73.43Z"/><path d="M407.35,16.71h18.2L457.41,104H436.74L430,84.49H402.8L396.15,104H375.49Zm19.31,53.88L416.45,39.71,406,70.59Z"/><path d="M524,34.43H497.38V104H477.21V34.43H450.52V16.71H524Z"/><path d="M533.79,104V16.71H554V104Z"/><path d="M565.65,59.64a44,44,0,0,1,3-15.68,42.63,42.63,0,0,1,8.61-14A43.85,43.85,0,0,1,591,20a43,43,0,0,1,18.45-3.81q12.3,0,21.34,5.29a34.2,34.2,0,0,1,13.47,13.78l-15.5,10.82A18,18,0,0,0,625,40.39a20.5,20.5,0,0,0-10.51-5.66,28.81,28.81,0,0,0-5.54-.55,20.76,20.76,0,0,0-10.08,2.34,22.17,22.17,0,0,0-7.14,6,24.93,24.93,0,0,0-4.18,8.37,34,34,0,0,0-1.35,9.47,31.2,31.2,0,0,0,1.6,10,26.4,26.4,0,0,0,4.61,8.49,22.29,22.29,0,0,0,7.25,5.84,20.73,20.73,0,0,0,9.54,2.15,24.5,24.5,0,0,0,5.59-.67,22.79,22.79,0,0,0,5.54-2.09,20.28,20.28,0,0,0,4.86-3.69,17.39,17.39,0,0,0,3.56-5.6l16.49,9.72a25.77,25.77,0,0,1-5.85,8.61,36,36,0,0,1-8.91,6.39,48.83,48.83,0,0,1-21.77,5.29,39.17,39.17,0,0,1-17.41-3.87,44.14,44.14,0,0,1-13.65-10.27,47.16,47.16,0,0,1-8.86-14.52A45.37,45.37,0,0,1,565.65,59.64Z"/><path d="M244.25,210V122.71h56.58v3.94H248.55v36.9H293v3.81H248.55V210Z"/><path d="M317.8,210V122.71h35.92a21.83,21.83,0,0,1,10,2.34,26.37,26.37,0,0,1,7.93,6.09,27.74,27.74,0,0,1,5.17,8.55,26.89,26.89,0,0,1,1.85,9.71,29.89,29.89,0,0,1-1.54,9.6,26.8,26.8,0,0,1-4.37,8.12A24.65,24.65,0,0,1,366,173a21.15,21.15,0,0,1-8.74,2.83L379.18,210h-4.92l-21.65-33.7h-30.5V210Zm4.31-37.63h32.35a17.62,17.62,0,0,0,8.3-2,19.94,19.94,0,0,0,6.33-5.17,23.66,23.66,0,0,0,4-7.38,26.34,26.34,0,0,0,1.41-8.49,22.54,22.54,0,0,0-1.66-8.54,24,24,0,0,0-4.49-7.26,22.21,22.21,0,0,0-6.64-5,17.93,17.93,0,0,0-8.12-1.91H322.11Z"/><path d="M423.58,122.71h3.69L464.79,210h-4.55l-12.92-30.13H403.53L390.62,210h-4.68ZM446,176.22l-20.54-48.09-20.67,48.09Z"/><path d="M559.37,210v-79l-36.65,62h-3l-36.66-62v79h-4.3V122.71h3.93l38.5,65.07,38.5-65.07h3.94V210Z"/><path d="M645,206.11V210H587.29V122.71h56.58v3.94H591.6v36.78h45.75v3.93H591.6v38.75Z"/></g></g></svg>