<svg xmlns="http://www.w3.org/2000/svg" viewBox="0 0 328.82 328.82"><defs><style>.cls-1,.cls-7,.cls-8{fill:none;}.cls-2,.cls-3,.cls-5,.cls-6{fill:#9fc9eb;}.cls-2,.cls-4{fill-rule:evenodd;}.cls-4{fill:#016699;}.cls-5,.cls-6{font-size:24px;}.cls-5{font-family:Raleway-ExtraBold, Raleway;font-weight:800;}.cls-6{font-family:Raleway-Light, Raleway;font-weight:300;}.cls-7,.cls-8{stroke:#9fc9eb;stroke-miterlimit:10;}.cls-7{stroke-width:3.95px;stroke-dasharray:230.4 230.4;}.cls-8{stroke-width:0.85px;stroke-dasharray:231.6 231.6;}</style></defs><title>Asset 40</title><g id="Layer_2" data-name="Layer 2"><g id="background"><circle class="cls-1" cx="164.41" cy="164.41" r="164.41"/></g><g id="infinti"><path class="cls-2" d="M164.41,50.94A113.39,113.39,0,1,1,84.23,84.15a113,113,0,0,1,80.18-33.21m0,17.2a96.18,96.18,0,1,0,68,28.17A95.83,95.83,0,0,0,164.41,68.14Z"/><path class="cls-3" d="M207.76,142.35l3.09-.91h0L225,137.29c0,.11,0,.21,0,.31h0v17.57l-2.17.64h0l-15,4.41Z"/><path class="cls-4" d="M155.81,158.24v-.56l0-.08h0V129.2a34.64,34.64,0,0,1,69-4.23l-17,5c0-.25,0-.51,0-.76a17.45,17.45,0,1,0-34.89,0h0v23.34l15.77-4.64,7-2.05v.31h0v17.56l-2.17.64h0l-15,4.42h0L173,170.41V171l0,.08h0v28.39a34.62,34.62,0,1,1-44.39-33.22h0Zm25.84,10.2,0,.08h0Zm-25.84,31h0V176.12l-22.35,6.57h0a17.46,17.46,0,1,0,22.35,16.77Z"/></g><g id="text-top"><text class="cls-5" transform="matrix(0.98, 0.19, -0.19, 0.98, 182.3, 35.02)">S</text><text class="cls-5" transform="translate(213.95 43.53) rotate(25.6)">T</text><text class="cls-5" transform="matrix(0.77, 0.64, -0.64, 0.77, 241.37, 58.83)">A</text><text class="cls-5" transform="translate(265.06 81.18) rotate(53.64)">T</text><text class="cls-5" transform="matrix(0.4, 0.92, -0.92, 0.4, 282.64, 109.24)">I</text><text class="cls-5" transform="translate(291.31 133.18) rotate(79.86)">C</text><circle class="cls-1" cx="164.41" cy="164.33" r="147.4"/></g><g id="text-bottom"><text class="cls-6" transform="translate(18.47 186.45) rotate(78.7)">F</text><text class="cls-6" transform="matrix(0.45, 0.89, -0.89, 0.45, 29.45, 224.28)">R</text><text class="cls-6" transform="matrix(0.68, 0.73, -0.73, 0.68, 50.8, 258.68)">A</text><text class="cls-6" transform="translate(81.51 286.77) rotate(30.07)">M</text><text class="cls-6" transform="translate(123.66 306.3) rotate(13.12)">E</text></g><g id="binders-arc-dashSB"><path class="cls-7" d="M310.28,164.41a145.93,145.93,0,1,1-291.85,0"/></g><g id="binders-arc-dashSL"><path class="cls-8" d="M17,164.41a147.4,147.4,0,0,1,294.8,0"/></g></g></svg>