<svg xmlns="http://www.w3.org/2000/svg" viewBox="0 0 683.36 226.77"><defs><style>.cls-1,.cls-2{fill:#9fc9eb;}.cls-1,.cls-3{fill-rule:evenodd;}.cls-3,.cls-4{fill:#016699;}</style></defs><title>Asset 41</title><g id="Layer_2" data-name="Layer 2"><g id="infinti"><path class="cls-1" d="M113.39,0A113.39,113.39,0,1,1,33.21,33.21,113,113,0,0,1,113.39,0m0,17.19a96.21,96.21,0,1,0,68,28.18A95.84,95.84,0,0,0,113.39,17.19Z"/><path class="cls-2" d="M156.74,91.41l3.08-.91h0l14.11-4.15v.31h0v17.57l-2.17.64h0l-15,4.41Z"/><path class="cls-3" d="M104.79,107.3v-.57l0-.07h0V78.26a34.64,34.64,0,0,1,69-4.23l-16.95,5c0-.25,0-.5,0-.75a17.45,17.45,0,1,0-34.89,0h0v23.33L137.76,97l7-2.06v.31h0v17.57l-2.18.64h0l-15,4.41h0L122,119.47V120l0,.08h0v28.39A34.61,34.61,0,1,1,77.6,115.3h0Zm25.84,10.2,0,.07h0Zm-25.84,31h0V125.18l-22.36,6.57h0a17.46,17.46,0,1,0,22.36,16.76Z"/></g><g id="text-side"><path class="cls-4" d="M277.76,60.79A8.3,8.3,0,0,0,276,59.5a34.13,34.13,0,0,0-3.87-2,37.52,37.52,0,0,0-5.07-1.8,20.13,20.13,0,0,0-5.5-.78q-7.58,0-7.57,5.08a4.06,4.06,0,0,0,.81,2.58,7.47,7.47,0,0,0,2.41,1.85,22.89,22.89,0,0,0,4,1.5q2.41.69,5.59,1.55a73.32,73.32,0,0,1,7.91,2.62,21.2,21.2,0,0,1,6,3.53,14.21,14.21,0,0,1,3.78,5.11A17.78,17.78,0,0,1,285.76,86a18.11,18.11,0,0,1-1.94,8.73,16.28,16.28,0,0,1-5.11,5.76,21.77,21.77,0,0,1-7.31,3.18,36.44,36.44,0,0,1-8.52,1,46.73,46.73,0,0,1-6.88-.52,49.24,49.24,0,0,1-6.88-1.5,54.5,54.5,0,0,1-6.49-2.37,35.56,35.56,0,0,1-5.81-3.18l6.2-12.3a11.3,11.3,0,0,0,2.23,1.64,33.1,33.1,0,0,0,4.69,2.41A48.08,48.08,0,0,0,256.17,91a26.25,26.25,0,0,0,7,.94q7.49,0,7.48-4.56a3.81,3.81,0,0,0-1.12-2.83,10.27,10.27,0,0,0-3.09-2,31.81,31.81,0,0,0-4.69-1.68q-2.72-.78-5.89-1.72a49.9,49.9,0,0,1-7.31-2.8,19.32,19.32,0,0,1-5.12-3.48,12.65,12.65,0,0,1-3-4.56,16.73,16.73,0,0,1-1-6,19.19,19.19,0,0,1,1.81-8.51,18.43,18.43,0,0,1,4.9-6.24,21.43,21.43,0,0,1,7.18-3.82,28.56,28.56,0,0,1,8.65-1.29,32.82,32.82,0,0,1,6.27.6,46.91,46.91,0,0,1,5.94,1.55,41.69,41.69,0,0,1,5.29,2.15c1.63.8,3.14,1.6,4.51,2.4Z"/><path class="cls-4" d="M372,55.29H353.43V104H339.32V55.29H320.66V42.9H372Z"/><path class="cls-4" d="M421.36,42.9h12.73L456.36,104H441.91l-4.73-13.67h-19L413.53,104H399.08Zm13.5,37.67L427.72,59l-7.31,21.58Z"/><path class="cls-4" d="M534.78,55.29H516.2V104H502.1V55.29H483.44V42.9h51.34Z"/><path class="cls-4" d="M573.55,104V42.9h14.11V104Z"/><path class="cls-4" d="M627.72,72.92a30.76,30.76,0,0,1,2.07-11,29.79,29.79,0,0,1,6-9.76,30.24,30.24,0,0,1,9.63-7,29.93,29.93,0,0,1,12.9-2.67,29,29,0,0,1,14.92,3.7,23.93,23.93,0,0,1,9.42,9.63l-10.84,7.57a12.57,12.57,0,0,0-2.62-4,14.42,14.42,0,0,0-7.36-4,20,20,0,0,0-3.87-.39,14.57,14.57,0,0,0-7,1.64A15.51,15.51,0,0,0,646,61,17.47,17.47,0,0,0,643,66.81a23.76,23.76,0,0,0-.95,6.62,22.07,22.07,0,0,0,1.12,7,18.61,18.61,0,0,0,3.23,5.93,15.47,15.47,0,0,0,5.07,4.09,14.58,14.58,0,0,0,6.67,1.5,16.89,16.89,0,0,0,3.91-.47A15.79,15.79,0,0,0,666,90a14.09,14.09,0,0,0,3.4-2.58,12.13,12.13,0,0,0,2.49-3.91l11.52,6.79a17.9,17.9,0,0,1-4.08,6,25.13,25.13,0,0,1-6.24,4.47,34.33,34.33,0,0,1-15.22,3.7,27.33,27.33,0,0,1-12.17-2.71,30.75,30.75,0,0,1-9.54-7.18,32.87,32.87,0,0,1-6.2-10.15A31.73,31.73,0,0,1,627.72,72.92Z"/><path class="cls-4" d="M243.53,184V122.9h39.56v2.75H246.54v25.81h31v2.66h-31V184Z"/><path class="cls-4" d="M334.1,184V122.9h25.11a15.29,15.29,0,0,1,7,1.64,18.49,18.49,0,0,1,5.54,4.25,19.46,19.46,0,0,1,3.62,6,18.81,18.81,0,0,1,1.29,6.8,20.68,20.68,0,0,1-1.08,6.7,18.7,18.7,0,0,1-3,5.68,17.33,17.33,0,0,1-4.73,4.13,14.62,14.62,0,0,1-6.11,2L377,184h-3.44L358.43,160.4H337.11V184Zm3-26.31h22.61a12.27,12.27,0,0,0,5.81-1.38,13.94,13.94,0,0,0,4.43-3.61,16.66,16.66,0,0,0,2.79-5.16,18.4,18.4,0,0,0,1-5.93,15.72,15.72,0,0,0-1.16-6,17,17,0,0,0-3.14-5.08A15.58,15.58,0,0,0,364.8,127a12.53,12.53,0,0,0-5.68-1.34h-22Z"/><path class="cls-4" d="M447.19,122.9h2.58L476,184h-3.18l-9-21.07H433.18l-9,21.07h-3.27Zm15.66,37.41-14.37-33.62L434,160.31Z"/><path class="cls-4" d="M581.27,184V128.75l-25.62,43.34h-2.07L528,128.75V184h-3V122.9h2.76l26.91,45.5,26.92-45.5h2.75V184Z"/><path class="cls-4" d="M680.27,181.21V184H639.93V122.9h39.56v2.75H642.94v25.72h32v2.75h-32v27.09Z"/></g></g></svg>