<svg xmlns="http://www.w3.org/2000/svg" viewBox="0 0 682.31 226.77"><defs><style>.cls-1,.cls-2{fill:#9fc9eb;}.cls-1,.cls-3{fill-rule:evenodd;}.cls-3,.cls-4{fill:#016699;}</style></defs><title>Asset 40</title><g id="Layer_2" data-name="Layer 2"><g id="infinti"><path class="cls-1" d="M113.39,0A113.39,113.39,0,1,1,33.21,33.21,113,113,0,0,1,113.39,0m0,17.19a96.21,96.21,0,1,0,68,28.18A95.84,95.84,0,0,0,113.39,17.19Z"/><path class="cls-2" d="M156.74,91.41l3.08-.91h0l14.11-4.15v.31h0v17.57l-2.17.64h0l-15,4.41Z"/><path class="cls-3" d="M104.79,107.3v-.57l0-.07h0V78.26a34.64,34.64,0,0,1,69-4.23l-16.95,5c0-.25,0-.5,0-.75a17.45,17.45,0,1,0-34.89,0h0v23.33L137.76,97l7-2.06v.31h0v17.57l-2.18.64h0l-15,4.41h0L122,119.47V120l0,.08h0v28.39A34.61,34.61,0,1,1,77.6,115.3h0Zm25.84,10.2,0,.07h0Zm-25.84,31h0V125.18l-22.36,6.57h0a17.46,17.46,0,1,0,22.36,16.76Z"/></g><g id="text-side"><path class="cls-4" d="M284.76,54.86a6,6,0,0,0-1.26-.9,23.76,23.76,0,0,0-2.7-1.38,26.14,26.14,0,0,0-3.54-1.26,14.13,14.13,0,0,0-3.84-.54q-5.28,0-5.28,3.54a2.81,2.81,0,0,0,.57,1.8,5,5,0,0,0,1.68,1.29,15.52,15.52,0,0,0,2.79,1.05l3.9,1.08a51,51,0,0,1,5.52,1.83,14.83,14.83,0,0,1,4.17,2.46,10,10,0,0,1,2.64,3.57,12.39,12.39,0,0,1,.93,5A12.63,12.63,0,0,1,289,78.53a11.38,11.38,0,0,1-3.57,4,15.09,15.09,0,0,1-5.1,2.22,25.41,25.41,0,0,1-5.94.69,33.13,33.13,0,0,1-4.8-.36,34.73,34.73,0,0,1-4.8-1,38.14,38.14,0,0,1-4.53-1.65,25.34,25.34,0,0,1-4.05-2.22l4.32-8.58a8.43,8.43,0,0,0,1.56,1.14,23.37,23.37,0,0,0,3.27,1.68,33.4,33.4,0,0,0,4.35,1.5,18.25,18.25,0,0,0,4.86.66q5.22,0,5.22-3.18a2.68,2.68,0,0,0-.78-2A7.34,7.34,0,0,0,276.84,70a23.44,23.44,0,0,0-3.27-1.17l-4.11-1.2a35.52,35.52,0,0,1-5.1-2,13.47,13.47,0,0,1-3.57-2.43,8.83,8.83,0,0,1-2.1-3.18,11.7,11.7,0,0,1-.69-4.2,13.37,13.37,0,0,1,1.26-5.94,12.82,12.82,0,0,1,3.42-4.35,14.88,14.88,0,0,1,5-2.67,19.91,19.91,0,0,1,6-.9,22.89,22.89,0,0,1,4.38.42,33,33,0,0,1,4.14,1.08,29.57,29.57,0,0,1,3.69,1.5q1.71.84,3.15,1.68Z"/><path class="cls-4" d="M373.42,51h-13V85h-9.83V51h-13V42.38h35.82Z"/><path class="cls-4" d="M430.77,42.38h8.88L455.19,85H445.11l-3.3-9.54H428.55L425.31,85H415.23Zm9.42,26.28-5-15.06-5.1,15.06Z"/><path class="cls-4" d="M532.82,51h-13V85H510V51H497V42.38h35.82Z"/><path class="cls-4" d="M582.78,85V42.38h9.84V85Z"/><path class="cls-4" d="M643.49,63.32a21.5,21.5,0,0,1,1.44-7.65,20.86,20.86,0,0,1,4.2-6.81A21.33,21.33,0,0,1,655.85,44a20.93,20.93,0,0,1,9-1.86,20.25,20.25,0,0,1,10.41,2.58,16.69,16.69,0,0,1,6.57,6.72l-7.56,5.28a8.78,8.78,0,0,0-1.83-2.79,10,10,0,0,0-5.13-2.76,14,14,0,0,0-2.7-.27A10.16,10.16,0,0,0,659.69,52,10.83,10.83,0,0,0,656.21,55a12.22,12.22,0,0,0-2,4.08,16.54,16.54,0,0,0-.66,4.62,15.27,15.27,0,0,0,.78,4.86,13,13,0,0,0,2.25,4.14,10.87,10.87,0,0,0,3.54,2.85,10.13,10.13,0,0,0,4.65,1,12,12,0,0,0,2.73-.33,11,11,0,0,0,2.7-1,9.65,9.65,0,0,0,2.37-1.8,8.41,8.41,0,0,0,1.74-2.73l8,4.74a12.52,12.52,0,0,1-2.85,4.2,17.58,17.58,0,0,1-4.35,3.12,23.88,23.88,0,0,1-10.62,2.58A19.08,19.08,0,0,1,656,83.45a21.48,21.48,0,0,1-6.66-5A22.92,22.92,0,0,1,645,71.36,22.14,22.14,0,0,1,643.49,63.32Z"/><path class="cls-4" d="M260.88,184v-42.6h27.6v1.92H263v18h21.66v1.86H263V184Z"/><path class="cls-4" d="M352.71,184v-42.6h17.52a10.66,10.66,0,0,1,4.89,1.14,12.9,12.9,0,0,1,3.87,3,13.6,13.6,0,0,1,2.52,4.17,13.11,13.11,0,0,1,.9,4.74,14.52,14.52,0,0,1-.75,4.68,13,13,0,0,1-2.13,4,12,12,0,0,1-3.3,2.88A10.29,10.29,0,0,1,372,167.3L382.65,184h-2.4l-10.56-16.44H354.81V184Zm2.1-18.36h15.78a8.58,8.58,0,0,0,4.05-1,9.74,9.74,0,0,0,3.09-2.52,11.57,11.57,0,0,0,1.95-3.6,12.84,12.84,0,0,0,.69-4.14,11.06,11.06,0,0,0-.81-4.17,11.84,11.84,0,0,0-2.19-3.54,10.87,10.87,0,0,0-3.24-2.46,8.74,8.74,0,0,0-4-.93H354.81Z"/><path class="cls-4" d="M460.26,141.38h1.79l18.3,42.6h-2.22l-6.29-14.7H450.47l-6.3,14.7h-2.28Zm10.91,26.1-10-23.46-10.08,23.46Z"/><path class="cls-4" d="M582.44,184V145.46L564.56,175.7h-1.44l-17.88-30.24V184h-2.1v-42.6h1.92l18.78,31.74,18.78-31.74h1.92V184Z"/><path class="cls-4" d="M680.15,182.06V184H652v-42.6h27.6v1.92h-25.5v17.94h22.32v1.92H654.11v18.9Z"/></g></g></svg>